# xmcd
#
# Track frame offsets:
#   150
#   14420
#   29507
#   42895
#   57807
#   74785
#   90297
#   113465
#   128952
#   143355
#   161440
#   176487
#   192225
#   208895
#   223592
#   237572
#
# Disc length: 3336 seconds
#
# Revision: 0
# Processed by: cddbd v1.5.2PL0 Copyright (c) Steve Scherf et al.
# Submitted via: GXTranscoder 2.0.1939
#
DISCID=e00d0610
DTITLE=Various Artist - Deutsche Schmushits Vol. 1
DYEAR=1900
DGENRE=Easy Listening
TTITLE0=Jürgen Marcus - Grand Prix D'amour
TTITLE1=Peter Orloff - Du
TTITLE2=Ronald - Kleine Annabell
TTITLE3=Elfie Graf - Guten Abend, gute Nacht
TTITLE4=Ulli Martin - Du musst nicht weinen
TTITLE5=Marion März - Vergessen heisst verloren sein
TTITLE6=Dunja Rajter - Ich glaub' dir
TTITLE7=Adam and Eve - Auch ein Herz kann weinen
TTITLE8=Mel Jersey - Malaika
TTITLE9=Severine - Winter in Athen
TTITLE10=Lolita - Wenn die weissen Rosen blüh'n
TTITLE11=Bernd Clüver - Mexican girl
TTITLE12=Waldulmer Musikanten - Herzilein
TTITLE13=Catarina Valente - Ganz Paris träumt von der Liebe
TTITLE14=Original Bambis - Melancholie
TTITLE15=Eric Silvester - Du liebst nur einmal
EXTD=
EXTT0=
EXTT1=
EXTT2=
EXTT3=
EXTT4=
EXTT5=
EXTT6=
EXTT7=
EXTT8=
EXTT9=
EXTT10=
EXTT11=
EXTT12=
EXTT13=
EXTT14=
EXTT15=
PLAYORDER=
